<svg id="visual" viewBox="0 0 1920 1080" width="1920" height="1080" xmlns="http://www.w3.org/2000/svg" xmlns:xlink="http://www.w3.org/1999/xlink" version="1.1"><rect x="0" y="0" width="1920" height="1080" fill="#FFFFFF"></rect><defs><linearGradient id="grad1_0" x1="43.8%" y1="100%" x2="100%" y2="0%"><stop offset="14.444444444444446%" stop-color="#ffffff" stop-opacity="1"></stop><stop offset="85.55555555555554%" stop-color="#ffffff" stop-opacity="1"></stop></linearGradient></defs><defs><linearGradient id="grad2_0" x1="0%" y1="100%" x2="56.3%" y2="0%"><stop offset="14.444444444444446%" stop-color="#ffffff" stop-opacity="1"></stop><stop offset="85.55555555555554%" stop-color="#ffffff" stop-opacity="1"></stop></linearGradient></defs><g transform="translate(1920, 1080)"><path d="M-756 0C-738.7 -94.7 -721.4 -189.3 -689.2 -285.5C-657 -381.6 -609.8 -479.2 -534.6 -534.6C-459.3 -589.9 -355.9 -603 -262.1 -632.9C-168.4 -662.7 -84.2 -709.4 0 -756L0 0Z" fill="#16A381"></path></g><g transform="translate(0, 0)"><path d="M756 0C737.1 99.7 718.3 199.4 672.6 278.6C626.9 357.8 554.3 416.6 490 490C425.7 563.5 369.6 651.7 289.3 698.5C209 745.2 104.5 750.6 0 756L0 0Z" fill="#16A381"></path></g></svg>